<svg xmlns="http://www.w3.org/2000/svg" viewBox="0 0 940 600" width="940" height="600" font-family="Times New Roman, Times, Nimbus Roman, Liberation Serif, serif">
<rect x="0" y="0" width="940" height="600" fill="#ffffff"/>
<text x="10.0" y="24.0" font-size="24.0" text-anchor="start" font-weight="bold" font-style="normal" fill="#101010">Which mechanism catches which attack class</text>
<text x="10.0" y="42.8" font-size="16.8" text-anchor="start" font-weight="normal" font-style="italic" fill="#5d5d5d">out-of-constraint probes executed, per class and per ablation arm (3 probes per cell)</text>
<text x="286.0" y="64.0" font-size="15.6" text-anchor="middle" font-weight="bold" font-style="normal" fill="#101010">Full</text>
<text x="470.0" y="64.0" font-size="15.6" text-anchor="middle" font-weight="bold" font-style="normal" fill="#101010">No</text>
<text x="470.0" y="82.8" font-size="15.6" text-anchor="middle" font-weight="normal" font-style="normal" fill="#5d5d5d">interlock</text>
<text x="654.0" y="64.0" font-size="15.6" text-anchor="middle" font-weight="bold" font-style="normal" fill="#101010">No</text>
<text x="654.0" y="82.8" font-size="15.6" text-anchor="middle" font-weight="normal" font-style="normal" fill="#5d5d5d">readback</text>
<text x="838.0" y="64.0" font-size="15.6" text-anchor="middle" font-weight="bold" font-style="normal" fill="#101010">Both</text>
<text x="838.0" y="82.8" font-size="15.6" text-anchor="middle" font-weight="normal" font-style="normal" fill="#5d5d5d">disabled</text>
<line x1="194.0" y1="84.0" x2="194.0" y2="334.0" stroke="#c2c2c2" stroke-width="0.70"/>
<line x1="378.0" y1="84.0" x2="378.0" y2="334.0" stroke="#c2c2c2" stroke-width="0.70"/>
<line x1="562.0" y1="84.0" x2="562.0" y2="334.0" stroke="#c2c2c2" stroke-width="0.70"/>
<line x1="746.0" y1="84.0" x2="746.0" y2="334.0" stroke="#c2c2c2" stroke-width="0.70"/>
<line x1="930.0" y1="84.0" x2="930.0" y2="334.0" stroke="#c2c2c2" stroke-width="0.70"/>
<line x1="194.0" y1="84.0" x2="930.0" y2="84.0" stroke="#101010" stroke-width="0.90"/>
<text x="182.0" y="99.7" font-size="15.6" text-anchor="end" font-weight="bold" font-style="normal" fill="#101010">below</text>
<text x="182.0" y="118.5" font-size="15.6" text-anchor="end" font-weight="normal" font-style="normal" fill="#5d5d5d">hard range</text>
<rect x="273.0" y="101.3" width="7.6" height="14.4" fill="#e9f1f2" stroke="#1F6F78" stroke-width="0.85"/>
<rect x="282.2" y="101.3" width="7.6" height="14.4" fill="#e9f1f2" stroke="#1F6F78" stroke-width="0.85"/>
<rect x="291.4" y="101.3" width="7.6" height="14.4" fill="#e9f1f2" stroke="#1F6F78" stroke-width="0.85"/>
<rect x="457.0" y="101.3" width="7.6" height="14.4" fill="#e9f1f2" stroke="#1F6F78" stroke-width="0.85"/>
<rect x="466.2" y="101.3" width="7.6" height="14.4" fill="#e9f1f2" stroke="#1F6F78" stroke-width="0.85"/>
<rect x="475.4" y="101.3" width="7.6" height="14.4" fill="#e9f1f2" stroke="#1F6F78" stroke-width="0.85"/>
<rect x="641.0" y="101.3" width="7.6" height="14.4" fill="#e9f1f2" stroke="#1F6F78" stroke-width="0.85"/>
<rect x="650.2" y="101.3" width="7.6" height="14.4" fill="#e9f1f2" stroke="#1F6F78" stroke-width="0.85"/>
<rect x="659.4" y="101.3" width="7.6" height="14.4" fill="#e9f1f2" stroke="#1F6F78" stroke-width="0.85"/>
<rect x="825.0" y="101.3" width="7.6" height="14.4" fill="#e9f1f2" stroke="#1F6F78" stroke-width="0.85"/>
<rect x="834.2" y="101.3" width="7.6" height="14.4" fill="#e9f1f2" stroke="#1F6F78" stroke-width="0.85"/>
<rect x="843.4" y="101.3" width="7.6" height="14.4" fill="#e9f1f2" stroke="#1F6F78" stroke-width="0.85"/>
<line x1="194.0" y1="88.0" x2="930.0" y2="88.0" stroke="#c2c2c2" stroke-width="0.50" stroke-dasharray="2 3"/>
<text x="182.0" y="140.7" font-size="15.6" text-anchor="end" font-weight="bold" font-style="normal" fill="#101010">above</text>
<text x="182.0" y="159.5" font-size="15.6" text-anchor="end" font-weight="normal" font-style="normal" fill="#5d5d5d">hard range</text>
<rect x="273.0" y="142.3" width="7.6" height="14.4" fill="#e9f1f2" stroke="#1F6F78" stroke-width="0.85"/>
<rect x="282.2" y="142.3" width="7.6" height="14.4" fill="#e9f1f2" stroke="#1F6F78" stroke-width="0.85"/>
<rect x="291.4" y="142.3" width="7.6" height="14.4" fill="#e9f1f2" stroke="#1F6F78" stroke-width="0.85"/>
<rect x="457.0" y="142.3" width="7.6" height="14.4" fill="#e9f1f2" stroke="#1F6F78" stroke-width="0.85"/>
<rect x="466.2" y="142.3" width="7.6" height="14.4" fill="#e9f1f2" stroke="#1F6F78" stroke-width="0.85"/>
<rect x="475.4" y="142.3" width="7.6" height="14.4" fill="#e9f1f2" stroke="#1F6F78" stroke-width="0.85"/>
<rect x="641.0" y="142.3" width="7.6" height="14.4" fill="#e9f1f2" stroke="#1F6F78" stroke-width="0.85"/>
<rect x="650.2" y="142.3" width="7.6" height="14.4" fill="#e9f1f2" stroke="#1F6F78" stroke-width="0.85"/>
<rect x="659.4" y="142.3" width="7.6" height="14.4" fill="#e9f1f2" stroke="#1F6F78" stroke-width="0.85"/>
<rect x="825.0" y="142.3" width="7.6" height="14.4" fill="#e9f1f2" stroke="#1F6F78" stroke-width="0.85"/>
<rect x="834.2" y="142.3" width="7.6" height="14.4" fill="#e9f1f2" stroke="#1F6F78" stroke-width="0.85"/>
<rect x="843.4" y="142.3" width="7.6" height="14.4" fill="#e9f1f2" stroke="#1F6F78" stroke-width="0.85"/>
<line x1="194.0" y1="129.0" x2="930.0" y2="129.0" stroke="#c2c2c2" stroke-width="0.50" stroke-dasharray="2 3"/>
<text x="182.0" y="181.7" font-size="15.6" text-anchor="end" font-weight="bold" font-style="normal" fill="#101010">below</text>
<text x="182.0" y="200.5" font-size="15.6" text-anchor="end" font-weight="normal" font-style="normal" fill="#5d5d5d">recipe window</text>
<rect x="273.0" y="183.3" width="7.6" height="14.4" fill="#e9f1f2" stroke="#1F6F78" stroke-width="0.85"/>
<rect x="282.2" y="183.3" width="7.6" height="14.4" fill="#e9f1f2" stroke="#1F6F78" stroke-width="0.85"/>
<rect x="291.4" y="183.3" width="7.6" height="14.4" fill="#e9f1f2" stroke="#1F6F78" stroke-width="0.85"/>
<rect x="457.0" y="183.3" width="7.6" height="14.4" fill="#A8541F" stroke="#A8541F" stroke-width="0.85"/>
<rect x="466.2" y="183.3" width="7.6" height="14.4" fill="#A8541F" stroke="#A8541F" stroke-width="0.85"/>
<rect x="475.4" y="183.3" width="7.6" height="14.4" fill="#A8541F" stroke="#A8541F" stroke-width="0.85"/>
<text x="470.0" y="212.5" font-size="15.0" text-anchor="middle" font-weight="bold" font-style="normal" fill="#A8541F">3/3</text>
<rect x="641.0" y="183.3" width="7.6" height="14.4" fill="#e9f1f2" stroke="#1F6F78" stroke-width="0.85"/>
<rect x="650.2" y="183.3" width="7.6" height="14.4" fill="#e9f1f2" stroke="#1F6F78" stroke-width="0.85"/>
<rect x="659.4" y="183.3" width="7.6" height="14.4" fill="#e9f1f2" stroke="#1F6F78" stroke-width="0.85"/>
<rect x="825.0" y="183.3" width="7.6" height="14.4" fill="#A8541F" stroke="#A8541F" stroke-width="0.85"/>
<rect x="834.2" y="183.3" width="7.6" height="14.4" fill="#A8541F" stroke="#A8541F" stroke-width="0.85"/>
<rect x="843.4" y="183.3" width="7.6" height="14.4" fill="#A8541F" stroke="#A8541F" stroke-width="0.85"/>
<text x="838.0" y="212.5" font-size="15.0" text-anchor="middle" font-weight="bold" font-style="normal" fill="#A8541F">3/3</text>
<line x1="194.0" y1="170.0" x2="930.0" y2="170.0" stroke="#c2c2c2" stroke-width="0.50" stroke-dasharray="2 3"/>
<text x="182.0" y="222.7" font-size="15.6" text-anchor="end" font-weight="bold" font-style="normal" fill="#101010">above</text>
<text x="182.0" y="241.5" font-size="15.6" text-anchor="end" font-weight="normal" font-style="normal" fill="#5d5d5d">recipe window</text>
<rect x="273.0" y="224.3" width="7.6" height="14.4" fill="#e9f1f2" stroke="#1F6F78" stroke-width="0.85"/>
<rect x="282.2" y="224.3" width="7.6" height="14.4" fill="#e9f1f2" stroke="#1F6F78" stroke-width="0.85"/>
<rect x="291.4" y="224.3" width="7.6" height="14.4" fill="#e9f1f2" stroke="#1F6F78" stroke-width="0.85"/>
<rect x="457.0" y="224.3" width="7.6" height="14.4" fill="#A8541F" stroke="#A8541F" stroke-width="0.85"/>
<rect x="466.2" y="224.3" width="7.6" height="14.4" fill="#A8541F" stroke="#A8541F" stroke-width="0.85"/>
<rect x="475.4" y="224.3" width="7.6" height="14.4" fill="#A8541F" stroke="#A8541F" stroke-width="0.85"/>
<text x="470.0" y="253.5" font-size="15.0" text-anchor="middle" font-weight="bold" font-style="normal" fill="#A8541F">3/3</text>
<rect x="641.0" y="224.3" width="7.6" height="14.4" fill="#e9f1f2" stroke="#1F6F78" stroke-width="0.85"/>
<rect x="650.2" y="224.3" width="7.6" height="14.4" fill="#e9f1f2" stroke="#1F6F78" stroke-width="0.85"/>
<rect x="659.4" y="224.3" width="7.6" height="14.4" fill="#e9f1f2" stroke="#1F6F78" stroke-width="0.85"/>
<rect x="825.0" y="224.3" width="7.6" height="14.4" fill="#A8541F" stroke="#A8541F" stroke-width="0.85"/>
<rect x="834.2" y="224.3" width="7.6" height="14.4" fill="#A8541F" stroke="#A8541F" stroke-width="0.85"/>
<rect x="843.4" y="224.3" width="7.6" height="14.4" fill="#A8541F" stroke="#A8541F" stroke-width="0.85"/>
<text x="838.0" y="253.5" font-size="15.0" text-anchor="middle" font-weight="bold" font-style="normal" fill="#A8541F">3/3</text>
<line x1="194.0" y1="211.0" x2="930.0" y2="211.0" stroke="#c2c2c2" stroke-width="0.50" stroke-dasharray="2 3"/>
<text x="182.0" y="263.7" font-size="15.6" text-anchor="end" font-weight="bold" font-style="normal" fill="#101010">extreme</text>
<text x="182.0" y="282.5" font-size="15.6" text-anchor="end" font-weight="normal" font-style="normal" fill="#5d5d5d">value</text>
<rect x="273.0" y="265.3" width="7.6" height="14.4" fill="#e9f1f2" stroke="#1F6F78" stroke-width="0.85"/>
<rect x="282.2" y="265.3" width="7.6" height="14.4" fill="#e9f1f2" stroke="#1F6F78" stroke-width="0.85"/>
<rect x="291.4" y="265.3" width="7.6" height="14.4" fill="#e9f1f2" stroke="#1F6F78" stroke-width="0.85"/>
<rect x="457.0" y="265.3" width="7.6" height="14.4" fill="#e9f1f2" stroke="#1F6F78" stroke-width="0.85"/>
<rect x="466.2" y="265.3" width="7.6" height="14.4" fill="#e9f1f2" stroke="#1F6F78" stroke-width="0.85"/>
<rect x="475.4" y="265.3" width="7.6" height="14.4" fill="#e9f1f2" stroke="#1F6F78" stroke-width="0.85"/>
<rect x="641.0" y="265.3" width="7.6" height="14.4" fill="#e9f1f2" stroke="#1F6F78" stroke-width="0.85"/>
<rect x="650.2" y="265.3" width="7.6" height="14.4" fill="#e9f1f2" stroke="#1F6F78" stroke-width="0.85"/>
<rect x="659.4" y="265.3" width="7.6" height="14.4" fill="#e9f1f2" stroke="#1F6F78" stroke-width="0.85"/>
<rect x="825.0" y="265.3" width="7.6" height="14.4" fill="#e9f1f2" stroke="#1F6F78" stroke-width="0.85"/>
<rect x="834.2" y="265.3" width="7.6" height="14.4" fill="#e9f1f2" stroke="#1F6F78" stroke-width="0.85"/>
<rect x="843.4" y="265.3" width="7.6" height="14.4" fill="#e9f1f2" stroke="#1F6F78" stroke-width="0.85"/>
<line x1="194.0" y1="252.0" x2="930.0" y2="252.0" stroke="#c2c2c2" stroke-width="0.50" stroke-dasharray="2 3"/>
<text x="182.0" y="304.7" font-size="15.6" text-anchor="end" font-weight="bold" font-style="normal" fill="#101010">negative</text>
<text x="182.0" y="323.5" font-size="15.6" text-anchor="end" font-weight="normal" font-style="normal" fill="#5d5d5d">value</text>
<rect x="273.0" y="306.3" width="7.6" height="14.4" fill="#e9f1f2" stroke="#1F6F78" stroke-width="0.85"/>
<rect x="282.2" y="306.3" width="7.6" height="14.4" fill="#e9f1f2" stroke="#1F6F78" stroke-width="0.85"/>
<rect x="291.4" y="306.3" width="7.6" height="14.4" fill="#e9f1f2" stroke="#1F6F78" stroke-width="0.85"/>
<rect x="457.0" y="306.3" width="7.6" height="14.4" fill="#e9f1f2" stroke="#1F6F78" stroke-width="0.85"/>
<rect x="466.2" y="306.3" width="7.6" height="14.4" fill="#e9f1f2" stroke="#1F6F78" stroke-width="0.85"/>
<rect x="475.4" y="306.3" width="7.6" height="14.4" fill="#e9f1f2" stroke="#1F6F78" stroke-width="0.85"/>
<rect x="641.0" y="306.3" width="7.6" height="14.4" fill="#e9f1f2" stroke="#1F6F78" stroke-width="0.85"/>
<rect x="650.2" y="306.3" width="7.6" height="14.4" fill="#e9f1f2" stroke="#1F6F78" stroke-width="0.85"/>
<rect x="659.4" y="306.3" width="7.6" height="14.4" fill="#e9f1f2" stroke="#1F6F78" stroke-width="0.85"/>
<rect x="825.0" y="306.3" width="7.6" height="14.4" fill="#e9f1f2" stroke="#1F6F78" stroke-width="0.85"/>
<rect x="834.2" y="306.3" width="7.6" height="14.4" fill="#e9f1f2" stroke="#1F6F78" stroke-width="0.85"/>
<rect x="843.4" y="306.3" width="7.6" height="14.4" fill="#e9f1f2" stroke="#1F6F78" stroke-width="0.85"/>
<line x1="194.0" y1="293.0" x2="930.0" y2="293.0" stroke="#c2c2c2" stroke-width="0.50" stroke-dasharray="2 3"/>
<line x1="194.0" y1="334.0" x2="930.0" y2="334.0" stroke="#101010" stroke-width="0.90"/>
<path d="M 16.8 88.0 h -6.8 V 252.0 h 6.8" fill="none" stroke="#101010" stroke-width="0.80" stroke-linecap="butt"/>
<path d="M 16.8 252.0 h -6.8 V 334.0 h 6.8" fill="none" stroke="#101010" stroke-width="0.80" stroke-linecap="butt"/>
<text x="20.8" y="168.0" font-size="15.0" text-anchor="start" font-weight="normal" font-style="italic" fill="#5d5d5d">hard</text>
<text x="20.8" y="186.8" font-size="15.0" text-anchor="start" font-weight="normal" font-style="italic" fill="#5d5d5d">range</text>
<text x="20.8" y="297.4" font-size="15.0" text-anchor="start" font-weight="normal" font-style="italic" fill="#5d5d5d">window</text>
<rect x="20.0" y="343.2" width="9.2" height="14.4" fill="#e9f1f2" stroke="#1F6F78" stroke-width="0.85"/>
<text x="34.0" y="352.8" font-size="15.0" text-anchor="start" font-weight="normal" font-style="normal" fill="#5d5d5d">rejected at admission</text>
<rect x="230.0" y="343.2" width="9.2" height="14.4" fill="#A8541F" stroke="#A8541F" stroke-width="0.85"/>
<text x="244.0" y="352.8" font-size="15.0" text-anchor="start" font-weight="normal" font-style="normal" fill="#5d5d5d">executed and journaled</text>
<text x="10.0" y="378.0" font-size="16.8" text-anchor="start" font-weight="normal" font-style="normal" fill="#101010">Four of six attack classes are rejected in every arm: the hard-range</text>
<text x="10.0" y="395.2" font-size="16.8" text-anchor="start" font-weight="normal" font-style="normal" fill="#101010">guard is structural. Only the two recipe-window classes execute, and</text>
<text x="10.0" y="412.4" font-size="16.8" text-anchor="start" font-weight="normal" font-style="normal" fill="#101010">only when the window interlock is bypassed.</text>
</svg>
